<?xml version="1.0" encoding="utf-8"?>
<!-- Generator: Adobe Illustrator 25.0.0, SVG Export Plug-In . SVG Version: 6.00 Build 0)  -->
<svg version="1.1" id="bold" xmlns="http://www.w3.org/2000/svg" xmlns:xlink="http://www.w3.org/1999/xlink" x="0px" y="0px"
	 viewBox="0 0 512 512" style="enable-background:new 0 0 512 512;" xml:space="preserve">
<style type="text/css">
	.st0{fill:#F4F4FA;}
</style>
<path class="st0" d="M474.5,149.3h-5.1V144c0-32.4-26.3-58.7-58.7-58.7h-352C26.3,85.3,0,111.6,0,144v202.7
	c0,32.4,26.3,58.7,58.7,58.7h352c32.3,0,58.7-26.3,58.7-58.7v-5.3h5.1c20.6,0,37.3-16.7,37.3-37.3V186.7
	C511.8,166.1,495.1,149.3,474.5,149.3z M296.9,229.8l-74.6,117.3c-2,3.1-5.4,4.9-9,4.9c-1.2,0-2.4-0.2-3.6-0.6
	c-4.7-1.7-7.6-6.4-7-11.4l9.2-73.3l-30.7,0c-4,0-7.7-2.2-9.5-5.8c-1.8-3.6-1.5-7.8,0.8-11.1l76.3-106.6c2.9-4,8.2-5.5,12.8-3.6
	c4.6,1.9,7.3,6.7,6.5,11.6l-10.2,62.3l30,0c3.9,0,7.5,2.1,9.3,5.5C299.1,222.3,299,226.5,296.9,229.8L296.9,229.8z"/>
</svg>
