<svg id="Layer_1" data-name="Layer 1" xmlns="http://www.w3.org/2000/svg" viewBox="0 0 1032.85 162"><defs><style>.cls-1{fill:#5d1214;}.cls-2{fill:#c03036;}.cls-3{font-size:139.77px;font-family:SpaceMono-Regular, Space Mono;}.cls-4{letter-spacing:0.01em;}.cls-5{letter-spacing:0.01em;}.cls-6{letter-spacing:-0.03em;}.cls-7{letter-spacing:-0.03em;}.cls-8{letter-spacing:-0.03em;}.cls-9{letter-spacing:-0.02em;}.cls-10{letter-spacing:-0.04em;}.cls-11{letter-spacing:-0.09em;}.cls-12{letter-spacing:-0.07em;}</style></defs><path class="cls-1" d="M229.34,93" transform="translate(-94.96 -12.77)"/><path class="cls-2" d="M153.08,15.92A58.2,58.2,0,0,0,95,74h19.17a39,39,0,0,1,39-38.95Z" transform="translate(-94.96 -12.77)"/><path class="cls-2" d="M211.93,15.92V35.09a39,39,0,0,1,39,39h19.16A58.19,58.19,0,0,0,211.93,15.92Z" transform="translate(-94.96 -12.77)"/><rect class="cls-2" x="149.58" y="53.9" width="17.05" height="34.84" transform="translate(-99.09 119.92) rotate(-45)"/><rect class="cls-2" x="189.52" y="62.79" width="34.84" height="17.05" transform="translate(-84.78 154.45) rotate(-45)"/><path class="cls-1" d="M229.34,94.48" transform="translate(-94.96 -12.77)"/><path class="cls-2" d="M153.08,171.51A58.19,58.19,0,0,1,95,113.39h19.17a39,39,0,0,0,39,39Z" transform="translate(-94.96 -12.77)"/><path class="cls-2" d="M211.93,171.51V152.35a39,39,0,0,0,39-39h19.16A58.18,58.18,0,0,1,211.93,171.51Z" transform="translate(-94.96 -12.77)"/><rect class="cls-2" x="140.69" y="107.59" width="34.84" height="17.05" transform="translate(-130.76 133.04) rotate(-45)"/><rect class="cls-2" x="198.42" y="98.7" width="17.05" height="34.84" transform="translate(-116.46 167.57) rotate(-45)"/><text class="cls-3" transform="translate(218.69 118.81)"><tspan class="cls-4">d</tspan><tspan class="cls-5" x="86.9" y="0">r</tspan><tspan class="cls-6" x="173.26" y="0">o</tspan><tspan class="cls-7" x="255.16" y="0">n</tspan><tspan class="cls-8" x="336.2" y="0">e</tspan><tspan class="cls-9" x="417.48" y="0">n</tspan><tspan class="cls-10" x="499.98" y="0">a</tspan><tspan class="cls-11" x="579.3" y="0">t</tspan><tspan class="cls-12" x="652.77" y="0">i</tspan><tspan x="728.63" y="0">c</tspan></text></svg>