<?xml version="1.0" encoding="utf-8"?>
<!-- Generator: Adobe Illustrator 25.0.0, SVG Export Plug-In . SVG Version: 6.00 Build 0)  -->
<svg version="1.1" id="Layer_1" xmlns="http://www.w3.org/2000/svg" xmlns:xlink="http://www.w3.org/1999/xlink" x="0px" y="0px"
	 viewBox="0 0 1062.19 180" style="enable-background:new 0 0 1062.19 180;" xml:space="preserve">
<style type="text/css">
	.st0{fill:#5D1214;}
	.st1{fill:#C03036;}
	.st2{fill:#FFFFFF;}
	.st3{font-family:'SpaceMono-Regular';}
	.st4{font-size:139.7735px;}
	.st5{letter-spacing:4;}
</style>
<g>
	<g>
		<g>
			<path class="st0" d="M153.31,85.19"/>
		</g>
	</g>
	<g>
		<g>
			<g>
				<path class="st1" d="M77.06,8.15c-32.05,0-58.12,26.07-58.12,58.12H38.1c0-21.48,17.48-38.96,38.96-38.96V8.15z"/>
			</g>
		</g>
	</g>
	<g>
		<g>
			<g>
				<path class="st1" d="M135.91,8.15v19.16c21.48,0,38.96,17.48,38.96,38.96h19.16C194.03,34.23,167.95,8.15,135.91,8.15z"/>
			</g>
		</g>
	</g>
	<g>
		<g>
			
				<rect x="73.56" y="46.13" transform="matrix(0.7071 -0.7071 0.7071 0.7071 -20.8952 76.6563)" class="st1" width="17.05" height="34.84"/>
		</g>
	</g>
	<g>
		<g>
			
				<rect x="113.5" y="55.02" transform="matrix(0.7071 -0.7071 0.7071 0.7071 -6.5923 111.1865)" class="st1" width="34.84" height="17.05"/>
		</g>
	</g>
	<g>
		<g>
			<path class="st0" d="M153.31,86.71"/>
		</g>
	</g>
	<g>
		<g>
			<g>
				<path class="st1" d="M77.06,163.75c-32.05,0-58.12-26.07-58.12-58.12H38.1c0,21.48,17.48,38.96,38.96,38.96V163.75z"/>
			</g>
		</g>
	</g>
	<g>
		<g>
			<g>
				<path class="st1" d="M135.91,163.75v-19.16c21.48,0,38.96-17.48,38.96-38.96h19.16C194.03,137.67,167.95,163.75,135.91,163.75z"
					/>
			</g>
		</g>
	</g>
	<g>
		<g>
			
				<rect x="64.66" y="99.82" transform="matrix(0.7071 -0.7071 0.7071 0.7071 -52.5717 89.7771)" class="st1" width="34.84" height="17.05"/>
		</g>
	</g>
	<g>
		<g>
			
				<rect x="122.39" y="90.93" transform="matrix(0.7071 -0.7071 0.7071 0.7071 -38.2688 124.3073)" class="st1" width="17.05" height="34.84"/>
		</g>
	</g>
</g>
<text transform="matrix(1 0 0 1 237.6275 123.8102)"><tspan x="0" y="0" class="st2 st3 st4 st5">dr</tspan><tspan x="179.19" y="0" class="st2 st3 st4">onenatic</tspan></text>
</svg>
