<svg id="Layer_1" data-name="Layer 1" xmlns="http://www.w3.org/2000/svg" viewBox="0 0 756 671.82"><defs><style>.cls-1{fill:#5d1214;}.cls-2{fill:#c03036;}</style></defs><path class="cls-1" d="M602.2,397.2" transform="translate(-22 -64.59)"/><path class="cls-2" d="M273,64.59C134.58,64.59,22,177.17,22,315.54h82.75c0-92.74,75.46-168.2,168.2-168.2Z" transform="translate(-22 -64.59)"/><path class="cls-2" d="M527,64.59v82.75c92.75,0,168.21,75.45,168.21,168.2H778C778,177.17,665.42,64.59,527,64.59Z" transform="translate(-22 -64.59)"/><rect class="cls-2" x="257.84" y="228.56" width="73.63" height="150.45" transform="translate(-150.51 232.74) rotate(-45)"/><rect class="cls-2" x="430.28" y="266.97" width="150.45" height="73.63" transform="translate(-88.75 381.83) rotate(-45)"/><path class="cls-1" d="M602.2,403.8" transform="translate(-22 -64.59)"/><path class="cls-2" d="M273,736.41C134.58,736.41,22,623.83,22,485.46h82.75c0,92.74,75.46,168.2,168.2,168.2Z" transform="translate(-22 -64.59)"/><path class="cls-2" d="M527,736.41V653.66c92.75,0,168.21-75.45,168.21-168.2H778C778,623.83,665.42,736.41,527,736.41Z" transform="translate(-22 -64.59)"/><rect class="cls-2" x="219.43" y="460.4" width="150.45" height="73.63" transform="translate(-287.28 289.39) rotate(-45)"/><rect class="cls-2" x="468.69" y="421.99" width="73.63" height="150.45" transform="translate(-225.52 438.49) rotate(-45)"/></svg>