<?xml version="1.0" encoding="utf-8"?>
<!-- Generator: Adobe Illustrator 25.0.0, SVG Export Plug-In . SVG Version: 6.00 Build 0)  -->
<svg version="1.1" id="Layer_1" xmlns="http://www.w3.org/2000/svg" xmlns:xlink="http://www.w3.org/1999/xlink" x="0px" y="0px"
	 viewBox="0 0 512 512" style="enable-background:new 0 0 512 512;" xml:space="preserve">
<style type="text/css">
	.st0{fill:#F4F4FA;}
</style>
<g>
	<path class="st0" d="M241,35.2c-57.8,3.3-112,25.8-155.3,64.4l66.9,66.9c25.2-21,55.8-33.6,88.4-36.6V35.2z"/>
	<path class="st0" d="M131.4,187.7l-66.9-66.9C25.8,164,3.4,218.2,0,276.1h94.7C97.7,243.4,110.4,212.8,131.4,187.7L131.4,187.7z"/>
	<path class="st0" d="M417.3,276.1H512c-3.3-57.8-25.8-112.1-64.4-155.3l-66.9,66.9C401.6,212.8,414.3,243.4,417.3,276.1z"/>
	<path class="st0" d="M417.3,306.1c-2.1,23.1-8.7,42.4-16.5,57.8c7.6,11.7,13.9,21.6,18.1,28.2c11.4,17.9,8.9,41-6.1,56
		c-3.6,3.6-7.8,6.6-12.3,8.8l15.6,15.6c2.9,2.9,6.8,4.4,10.6,4.4c3.8,0,7.7-1.5,10.6-4.4c44.9-44.9,71.1-103.5,74.7-166.4H417.3z"/>
	<path class="st0" d="M94.7,306.1H0c3.6,62.9,29.8,121.5,74.7,166.4c2.9,2.9,6.8,4.4,10.6,4.4s7.7-1.5,10.6-4.4l45.5-45.5
		c5.9-5.9,5.9-15.4,0-21.2C129.6,393.8,99.7,360.6,94.7,306.1L94.7,306.1z"/>
	<path class="st0" d="M426.3,99.5C383,60.9,328.8,38.5,271,35.2v94.7c32.6,3,63.2,15.7,88.4,36.6L426.3,99.5z"/>
	<path class="st0" d="M289.3,258c-18.4-18.4-48.3-18.4-66.7,0s-18.4,48.3,0,66.7c23.2,23.2,137.3,96.1,150.2,104.3
		c5.9,3.8,13.7,2.9,18.7-2c5-5,5.8-12.7,2-18.7C385.4,395.3,312.5,281.2,289.3,258z"/>
</g>
</svg>
