<?xml version="1.0" encoding="utf-8"?>
<!-- Generator: Adobe Illustrator 25.0.0, SVG Export Plug-In . SVG Version: 6.00 Build 0)  -->
<svg version="1.1" id="Capa_1" xmlns="http://www.w3.org/2000/svg" xmlns:xlink="http://www.w3.org/1999/xlink" x="0px" y="0px"
	 viewBox="0 0 454.7 454.7" style="enable-background:new 0 0 454.7 454.7;" xml:space="preserve">
<style type="text/css">
	.st0{fill:#E2E2E8;}
</style>
<g>
	<g>
		<path class="st0" d="M454.7,227.6l-38.9-50.7l8.7-63l-59.4-23.6L341.5,31l-63,8.7L227.3,0.3l-50.7,38.9l-63-8.7L90.1,89.9
			l-59.4,23.6l8.7,63L0,227.6l38.9,50.7l-8.7,63l59.4,23.6l23.6,59.4l63-8.7l50.7,38.9l50.7-38.9l63,8.7l23.6-59.4l59.4-24.1
			l-8.7-63L454.7,227.6z M208.9,301.3l-75.8-62.5l16.4-20l56.3,46.1l96.3-111.1l19.5,16.9L208.9,301.3z"/>
	</g>
</g>
</svg>
